<svg id="Component_2_1" data-name="Component 2 – 1" xmlns="http://www.w3.org/2000/svg" width="336.301" height="123.716" viewBox="0 0 336.301 123.716">
  <g id="Warstwa_2" data-name="Warstwa 2" transform="translate(0.04)">
    <g id="Warstwa_1" data-name="Warstwa 1" transform="translate(-0.04)">
      <path id="Path_1" data-name="Path 1" d="M39.909,26.859V0c3.719,1.233,7.2,2.379,10.692,3.54C54.362,4.8,54.358,4.8,54.358,8.847c0,13.808.027,27.615,0,41.427-.057,12.2-7,22.277-18.107,26.386C18.594,83.193-.663,69.275-.025,50.442.666,30.93,19.415,18.89,37.95,26.069,38.473,26.271,38.988,26.485,39.909,26.859ZM26.979,63.73A12.645,12.645,0,0,0,39.851,51.19a12.771,12.771,0,1,0-25.538-.416A12.66,12.66,0,0,0,26.979,63.73Z" transform="translate(0.04)" fill="rgba(255,255,255,0.88)"/>
      <path id="Path_2" data-name="Path 2" d="M186.353,96.985c3.555,6.938,13.208,7.832,20.127,1.963,1.615,1.527,3.253,3.089,4.9,4.643l4.964,4.7c-5.575,7.1-18.653,11.746-30.422,6.22-13.116-6.155-19.111-20.551-14.2-33.839,4.769-12.9,19.092-20.387,32.339-16.419,14.69,4.376,21.383,16.652,19.474,32.743Zm-.221-13.9h21.7c-2.726-3.818-6.129-5.823-10.535-5.922C192.654,77.068,189,78.977,186.132,83.09Z" transform="translate(-105.081 -39.063)" fill="rgba(255,255,255,0.88)"/>
      <path id="Path_3" data-name="Path 3" d="M637,62.83h14.231c.065,1,.126,1.982.183,2.891,2.459-.47,4.853-1.069,7.286-1.359a23.639,23.639,0,0,1,25.412,17.878,24.673,24.673,0,0,1,.764,5.831c.08,8.966.038,17.947.038,26.9,0,.382-.042.764-.073,1.252H670.469v-2.211c0-8.4.038-16.8,0-25.2-.034-5.548-3.1-9.252-8.187-10.115A9.444,9.444,0,0,0,651.35,87.86c-.027,8.714,0,17.427,0,26.137v2.2H637Z" transform="translate(-393.748 -38.839)" fill="rgba(255,255,255,0.88)"/>
      <path id="Path_4" data-name="Path 4" d="M317.54,63.724c5,0,9.886-.042,14.762.065.474,0,1.126.863,1.359,1.455q5.155,13.208,10.245,26.454c.275.71.573,1.409,1.035,2.539.382-.851.611-1.375.817-1.909,3.456-8.874,6.946-17.729,10.31-26.638a2.626,2.626,0,0,1,3.02-2.016c4.376.13,8.76.046,13.365.046-.328.894-.561,1.6-.84,2.291q-9.985,24.6-20,49.212a2.2,2.2,0,0,1-2.471,1.692c-2.986-.111-5.98.023-8.966-.084a2.207,2.207,0,0,1-1.657-1.05q-10.444-25.557-20.761-51.168A8.491,8.491,0,0,1,317.54,63.724Z" transform="translate(-196.273 -39.359)" fill="rgba(255,255,255,0.88)"/>
      <path id="Path_5" data-name="Path 5" d="M832.842,90.342c-14.315.347-27.619-11.433-29.047-25.584-.206-2.024-.305-4.063-.313-6.11-.031-10.948,0-21.9-.042-32.839a2.1,2.1,0,0,1,1.711-2.44c4.17-1.279,8.294-2.719,12.715-4.2V36.2h15.068V49.611h-14.8c0,4.8-.485,9.424.111,13.9.981,7.32,6.446,11.746,14.594,12.582Z" transform="translate(-496.633 -11.85)" fill="rgba(255,255,255,0.88)"/>
      <path id="Path_6" data-name="Path 6" d="M500.691,64.24A26.835,26.835,0,0,0,479,112.643a26.7,26.7,0,0,0,34.141-4.154l-9.962-9.435c-7.114,5.812-17.691,4.781-19.974-2h37.123C522.219,80.881,514.437,67.978,500.691,64.24ZM482.862,83.134a12.324,12.324,0,0,1,10.344-5.88c4.723-.168,8.37,1.841,11.291,5.88Z" transform="translate(-288.513 -39.141)" fill="rgba(255,255,255,0.88)"/>
    </g>
  </g>
  <path id="Path_7" data-name="Path 7" d="M192.611,426.92H520.5s-241.1,4.1-280.783,8.843-47.107,12.953-47.107,12.953Z" transform="translate(-187 -325)" fill="rgba(255,255,255,0.88)"/>
</svg>
